<svg width="120" height="125" viewBox="0 0 120 125" fill="none" xmlns="http://www.w3.org/2000/svg">
<g clip-path="url(#clip0_258_32)" filter="url(#filter0_d_258_32)">
<path d="M95.0477 79.0213L79.2981 72.6875L91.6606 61.2348L95.0477 79.0213ZM41.1319 42.0329L41.1448 40.4733L41.1319 42.0329ZM86.4361 68.167L85.5035 69.3116C79.0776 63.0602 71.4609 58.6687 64.9862 56.7816C61.7455 55.8371 58.8706 55.5433 56.6104 55.8931C54.3566 56.242 52.8513 57.2003 52.0491 58.6301L50.815 57.7775L49.5809 56.9249C50.9402 54.5019 53.3209 53.2298 56.0919 52.8009C58.8566 52.373 62.1456 52.7539 65.6223 53.7672C72.5824 55.7958 80.6148 60.4518 87.3687 67.0224L86.4361 68.167ZM50.815 57.7775L52.0491 58.6301C50.54 61.32 50.4531 63.5816 51.0183 65.3363C51.5975 67.1342 52.9439 68.6557 54.7167 69.6603C58.3663 71.7284 62.9852 71.2478 65.0322 67.5991L66.2664 68.4517L67.5005 69.3043C64.4367 74.7653 57.9576 74.9584 53.4731 72.4174C51.1789 71.1173 49.1992 69.0136 48.3121 66.2596C47.4111 63.4626 47.7178 60.2457 49.5809 56.9249L50.815 57.7775ZM66.2664 68.4517L65.0322 67.5991C65.9721 65.9239 65.8904 63.7739 64.7553 61.1902C63.617 58.5993 61.505 55.8075 58.8193 53.1958C56.1464 50.5965 52.9807 48.2491 49.8274 46.5214C46.6561 44.7838 43.5967 43.7271 41.1191 43.5924L41.1319 42.0329L41.1448 40.4733C44.1819 40.6384 47.6604 41.8953 51.0344 43.7439C54.4264 45.6025 57.8133 48.1143 60.6841 50.9061C63.5422 53.6854 65.9653 56.8166 67.3373 59.9395C68.7124 63.0697 69.1161 66.4246 67.5005 69.3043L66.2664 68.4517ZM41.1319 42.0329L41.1191 43.5924C30.5168 43.0161 26.5552 45.4283 24.8713 46.5362L24.0916 45.1913L23.3119 43.8464C25.484 42.4172 30.0002 39.8675 41.1448 40.4733L41.1319 42.0329Z" fill="#FFCC00"/>
</g>
<defs>
<filter id="filter0_d_258_32" x="-11.9998" y="-8" width="143.806" height="148.483" filterUnits="userSpaceOnUse" color-interpolation-filters="sRGB">
<feFlood flood-opacity="0" result="BackgroundImageFix"/>
<feColorMatrix in="SourceAlpha" type="matrix" values="0 0 0 0 0 0 0 0 0 0 0 0 0 0 0 0 0 0 127 0" result="hardAlpha"/>
<feOffset dy="4"/>
<feGaussianBlur stdDeviation="6"/>
<feColorMatrix type="matrix" values="0 0 0 0 0 0 0 0 0 0 0 0 0 0 0 0 0 0 0.1 0"/>
<feBlend mode="normal" in2="BackgroundImageFix" result="effect1_dropShadow_258_32"/>
<feBlend mode="normal" in="SourceGraphic" in2="effect1_dropShadow_258_32" result="shape"/>
</filter>
<clipPath id="clip0_258_32">
<rect width="96.3739" height="80" fill="white" transform="translate(66.8283) rotate(56.6527)"/>
</clipPath>
</defs>
</svg>
